<?xml version='1.0' encoding='utf-8'?>
<mxfile host="app.diagrams.net" modified="2025-08-18T00:00:00.000Z" agent="ChatGPT" version="24.7.5"><diagram id="Q2" name="Q2 Sequence Diagram"><mxGraphModel dx="1280" dy="720" grid="1" gridSize="10" guides="1" tooltips="1" connect="1" arrows="1" fold="1" page="1" pageScale="1" pageWidth="1920" pageHeight="1080" math="0" shadow="0"><root><mxCell id="0" /><mxCell id="1" parent="0" /><mxCell id="h_u" value="Transcriptionist/User" style="rounded=1;whiteSpace=wrap;html=1;fillColor=#dae8fc;strokeColor=#6c8ebf;" vertex="1" parent="1"><mxGeometry x="80" y="60" width="160" height="40" as="geometry" /></mxCell><mxCell id="l_u" style="shape=line;html=1;strokeColor=#000000;dashed=1;dashPattern=8 8;labelBackgroundColor=none;" vertex="1" parent="1"><mxGeometry x="160" y="100" width="0" height="820" as="geometry" /></mxCell><mxCell id="h_api" value="Transcriptive API" style="rounded=1;whiteSpace=wrap;html=1;fillColor=#dae8fc;strokeColor=#6c8ebf;" vertex="1" parent="1"><mxGeometry x="280" y="60" width="160" height="40" as="geometry" /></mxCell><mxCell id="l_api" style="shape=line;html=1;strokeColor=#000000;dashed=1;dashPattern=8 8;labelBackgroundColor=none;" vertex="1" parent="1"><mxGeometry x="360" y="100" width="0" height="820" as="geometry" /></mxCell><mxCell id="h_clf" value="SpecialtyClassifier" style="rounded=1;whiteSpace=wrap;html=1;fillColor=#dae8fc;strokeColor=#6c8ebf;" vertex="1" parent="1"><mxGeometry x="480" y="60" width="160" height="40" as="geometry" /></mxCell><mxCell id="l_clf" style="shape=line;html=1;strokeColor=#000000;dashed=1;dashPattern=8 8;labelBackgroundColor=none;" vertex="1" parent="1"><mxGeometry x="560" y="100" width="0" height="820" as="geometry" /></mxCell><mxCell id="h_ner" value="ClinicalNER" style="rounded=1;whiteSpace=wrap;html=1;fillColor=#dae8fc;strokeColor=#6c8ebf;" vertex="1" parent="1"><mxGeometry x="680" y="60" width="160" height="40" as="geometry" /></mxCell><mxCell id="l_ner" style="shape=line;html=1;strokeColor=#000000;dashed=1;dashPattern=8 8;labelBackgroundColor=none;" vertex="1" parent="1"><mxGeometry x="760" y="100" width="0" height="820" as="geometry" /></mxCell><mxCell id="h_err" value="ErrorDetector" style="rounded=1;whiteSpace=wrap;html=1;fillColor=#dae8fc;strokeColor=#6c8ebf;" vertex="1" parent="1"><mxGeometry x="880" y="60" width="160" height="40" as="geometry" /></mxCell><mxCell id="l_err" style="shape=line;html=1;strokeColor=#000000;dashed=1;dashPattern=8 8;labelBackgroundColor=none;" vertex="1" parent="1"><mxGeometry x="960" y="100" width="0" height="820" as="geometry" /></mxCell><mxCell id="h_res" value="Results Store" style="rounded=1;whiteSpace=wrap;html=1;fillColor=#dae8fc;strokeColor=#6c8ebf;" vertex="1" parent="1"><mxGeometry x="1080" y="60" width="160" height="40" as="geometry" /></mxCell><mxCell id="l_res" style="shape=line;html=1;strokeColor=#000000;dashed=1;dashPattern=8 8;labelBackgroundColor=none;" vertex="1" parent="1"><mxGeometry x="1160" y="100" width="0" height="820" as="geometry" /></mxCell><mxCell id="title" value="Q2: Sequence Diagram — POST /analyze" style="text;html=1;strokeColor=none;fillColor=none;align=center;verticalAlign=top;fontSize=18;" vertex="1" parent="1"><mxGeometry x="640" y="10" width="640" height="40" as="geometry" /></mxCell><mxCell id="tl" value="Time ↓" style="text;html=1;strokeColor=none;fillColor=none;align=left;verticalAlign=top;fontStyle=1;" vertex="1" parent="1"><mxGeometry x="20" y="100" width="60" height="20" as="geometry" /></mxCell><mxCell id="m_u_api_160" value="1) POST /analyze { text }" style="endArrow=classic;html=1;rounded=0;" edge="1" parent="1" source="l_u" target="l_api"><mxGeometry relative="1" as="geometry"><Array as="points"><mxPoint x="160" y="160" /><mxPoint x="360" y="160" /></Array></mxGeometry></mxCell><mxCell id="a_api_150" style="shape=rectangle;whiteSpace=wrap;html=1;fillColor=#ffffff;strokeColor=#000000;" vertex="1" parent="1"><mxGeometry x="355" y="150" width="10" height="540" as="geometry" /></mxCell><mxCell id="m_api_clf_220" value="2) classify(text)" style="endArrow=classic;html=1;rounded=0;" edge="1" parent="1" source="l_api" target="l_clf"><mxGeometry relative="1" as="geometry"><Array as="points"><mxPoint x="360" y="220" /><mxPoint x="560" y="220" /></Array></mxGeometry></mxCell><mxCell id="a_clf_210" style="shape=rectangle;whiteSpace=wrap;html=1;fillColor=#ffffff;strokeColor=#000000;" vertex="1" parent="1"><mxGeometry x="555" y="210" width="10" height="60" as="geometry" /></mxCell><mxCell id="m_clf_api_280" value="label, confidence" style="endArrow=classic;html=1;rounded=0;dashed=1;dashPattern=8 8;" edge="1" parent="1" source="l_clf" target="l_api"><mxGeometry relative="1" as="geometry"><Array as="points"><mxPoint x="560" y="280" /><mxPoint x="360" y="280" /></Array></mxGeometry></mxCell><mxCell id="m_api_ner_340" value="3) extract_entities(text)" style="endArrow=classic;html=1;rounded=0;" edge="1" parent="1" source="l_api" target="l_ner"><mxGeometry relative="1" as="geometry"><Array as="points"><mxPoint x="360" y="340" /><mxPoint x="760" y="340" /></Array></mxGeometry></mxCell><mxCell id="a_ner_330" style="shape=rectangle;whiteSpace=wrap;html=1;fillColor=#ffffff;strokeColor=#000000;" vertex="1" parent="1"><mxGeometry x="755" y="330" width="10" height="60" as="geometry" /></mxCell><mxCell id="m_ner_api_400" value="entities[]" style="endArrow=classic;html=1;rounded=0;dashed=1;dashPattern=8 8;" edge="1" parent="1" source="l_ner" target="l_api"><mxGeometry relative="1" as="geometry"><Array as="points"><mxPoint x="760" y="400" /><mxPoint x="360" y="400" /></Array></mxGeometry></mxCell><mxCell id="m_api_err_460" value="4) detect_errors(text, entities)" style="endArrow=classic;html=1;rounded=0;" edge="1" parent="1" source="l_api" target="l_err"><mxGeometry relative="1" as="geometry"><Array as="points"><mxPoint x="360" y="460" /><mxPoint x="960" y="460" /></Array></mxGeometry></mxCell><mxCell id="a_err_450" style="shape=rectangle;whiteSpace=wrap;html=1;fillColor=#ffffff;strokeColor=#000000;" vertex="1" parent="1"><mxGeometry x="955" y="450" width="10" height="60" as="geometry" /></mxCell><mxCell id="m_err_api_520" value="error_flags[]" style="endArrow=classic;html=1;rounded=0;dashed=1;dashPattern=8 8;" edge="1" parent="1" source="l_err" target="l_api"><mxGeometry relative="1" as="geometry"><Array as="points"><mxPoint x="960" y="520" /><mxPoint x="360" y="520" /></Array></mxGeometry></mxCell><mxCell id="m_api_res_580" value="5) persist(output)" style="endArrow=classic;html=1;rounded=0;" edge="1" parent="1" source="l_api" target="l_res"><mxGeometry relative="1" as="geometry"><Array as="points"><mxPoint x="360" y="580" /><mxPoint x="1160" y="580" /></Array></mxGeometry></mxCell><mxCell id="a_res_570" style="shape=rectangle;whiteSpace=wrap;html=1;fillColor=#ffffff;strokeColor=#000000;" vertex="1" parent="1"><mxGeometry x="1155" y="570" width="10" height="60" as="geometry" /></mxCell><mxCell id="m_res_api_640" value="ack" style="endArrow=classic;html=1;rounded=0;dashed=1;dashPattern=8 8;" edge="1" parent="1" source="l_res" target="l_api"><mxGeometry relative="1" as="geometry"><Array as="points"><mxPoint x="1160" y="640" /><mxPoint x="360" y="640" /></Array></mxGeometry></mxCell><mxCell id="m_api_u_700" value="6) 200 OK: { specialty, entities, error_flags, summary }" style="endArrow=classic;html=1;rounded=0;dashed=1;dashPattern=8 8;" edge="1" parent="1" source="l_api" target="l_u"><mxGeometry relative="1" as="geometry"><Array as="points"><mxPoint x="360" y="700" /><mxPoint x="160" y="700" /></Array></mxGeometry></mxCell></root></mxGraphModel></diagram></mxfile>